# xmcd
#
# Track frame offsets: 
#        150
#        15789
#        31582
#        47545
#        63564
#        73615
#        85111
#        99612
#        112382
#        124578
#
# Disc length: 1862 seconds
#
# Revision: 1
# Processed by: cddbd v1.5.2PL0 Copyright (c) Steve Scherf et al.
# Submitted via: ExactAudioCopy v1.0b3
#
DISCID=7807440a
DTITLE=Mikey Jr and Matt Daniels - Pocket Full Of Money
DYEAR=2009
DGENRE=Blues
TTITLE0=Pocket Full Of Money
TTITLE1=Me And The Devil Blues
TTITLE2=Big Boats Up The River
TTITLE3=Walkin' Blues
TTITLE4=North Country Blues
TTITLE5=They're Red Hot
TTITLE6=The River Was Whiskey
TTITLE7=Steady Rollin' Man
TTITLE8=We Made A Mistake
TTITLE9=You Don't Have To Go
EXTD=
EXTT0=
EXTT1=
EXTT2=
EXTT3=
EXTT4=
EXTT5=
EXTT6=
EXTT7=
EXTT8=
EXTT9=
PLAYORDER=
